General
Complete name : ice age 2 meltdown.dual.audio{hindi-eng}DVDRip.aaaevilacharya
Format : Matroska
File size : 715 MiB
Duration : 1h 26mn
Overall bit rate : 1 151 Kbps
Encoded date : UTC 2010-11-01 14:37:32

Video
ID : 1
Format : MPEG-4 Visual
Format profile : Advanced Simple@L5
Format settings, BVOP : Yes
Format settings, QPel : No
Format settings, GMC : No warppoints
Format settings, Matrix : Default (H.263)
Codec ID : DX50
Codec ID/Hint : DivX 5
Duration : 1h 26mn
Bit rate : 904 Kbps
Width : 720 pixels
Height : 274 pixels
Display aspect ratio : 2.628
Original display aspect ratio : 1.898
Frame rate : 25.000 fps
Color space : YUV
Chroma subsampling : 4:2:0
Bit depth : 8 bits
Scan type : Progressive
Bits/(Pixel*Frame) : 0.254
Stream size : 562 MiB (79%)
Title : ice age 2.aaaevilacharya
Writing library : XviD 1.0.3
Language : Hindi

Audio #1
ID : 2
Format : MPEG Audio
Format version : Version 1
Format profile : Layer 3
Mode : Joint stereo
Codec ID : A_MPEG/L3
Codec ID/Hint : MP3
Duration : 1h 26mn
Bit rate mode : Constant
Bit rate : 112 Kbps
Channel(s) : 2 channels
Sampling rate : 44.1 KHz
Stream size : 69.6 MiB (10%)
Title : aaaevilacharya
Writing library : LAME3.97
Language : Hindi

Audio #2
ID : 3
Format : MPEG Audio
Format version : Version 1
Format profile : Layer 3
Mode : Joint stereo
Mode extension : MS Stereo
Codec ID : A_MPEG/L3
Codec ID/Hint : MP3
Duration : 1h 26mn
Bit rate mode : Constant
Bit rate : 112 Kbps
Channel(s) : 2 channels
Sampling rate : 44.1 KHz
Stream size : 69.6 MiB (10%)
Title : aaaevilacharya
Writing library : LAME3.97
Language : English

screenshots
 
http://img230.imageshack.us/img230/8792/vlcsnap2010110110h04m29.png
 
http://img684.imageshack.us/img684/6766/iceage2themeltdown2006fm.jpg
 
http://img594.imageshack.us/img594/5005/vlcsnap2010110110h02m10.png
 
http://img213.imageshack.us/img213/8100/vlcsnap2010110110h02m48.png
 
http://img121.imageshack.us/img121/9625/vlcsnap2010110110h03m30.png
 
http://img442.imageshack.us/img442/8153/vlcsnap2010110110h03m42.png
 
http://img89.imageshack.us/img89/6046/vlcsnap2010110110h04m05.png
